<mxfile host="app.diagrams.net" agent="Mozilla/5.0 (Windows NT 10.0; Win64; x64) AppleWebKit/537.36 (KHTML, like Gecko) Chrome/131.0.0.0 Safari/537.36" version="26.0.16">
  <diagram name="Page-1" id="sEf4sk3wwNkz5BZjkVHa">
    <mxGraphModel dx="1276" dy="543" grid="1" gridSize="10" guides="1" tooltips="1" connect="1" arrows="1" fold="1" page="1" pageScale="1" pageWidth="1169" pageHeight="827" math="0" shadow="0">
      <root>
        <mxCell id="0" />
        <mxCell id="1" parent="0" />
        <mxCell id="1PnqO76EX2JIDrIzQUJ2-1" value="A" style="whiteSpace=wrap;strokeWidth=2;" vertex="1" parent="1">
          <mxGeometry x="319" y="60" width="69" height="54" as="geometry" />
        </mxCell>
        <mxCell id="1PnqO76EX2JIDrIzQUJ2-2" value="B" style="whiteSpace=wrap;strokeWidth=2;" vertex="1" parent="1">
          <mxGeometry x="870" y="100" width="69" height="54" as="geometry" />
        </mxCell>
        <mxCell id="1PnqO76EX2JIDrIzQUJ2-3" value="C" style="whiteSpace=wrap;strokeWidth=2;" vertex="1" parent="1">
          <mxGeometry x="700" y="250" width="70" height="54" as="geometry" />
        </mxCell>
        <mxCell id="1PnqO76EX2JIDrIzQUJ2-4" value="D" style="whiteSpace=wrap;strokeWidth=2;" vertex="1" parent="1">
          <mxGeometry x="259" y="360" width="70" height="54" as="geometry" />
        </mxCell>
        <mxCell id="1PnqO76EX2JIDrIzQUJ2-5" value="" style="curved=1;startArrow=none;endArrow=block;exitX=0.06;exitY=1;entryX=0.5;entryY=0;rounded=0;" edge="1" parent="1" source="1PnqO76EX2JIDrIzQUJ2-1" target="1PnqO76EX2JIDrIzQUJ2-2">
          <mxGeometry relative="1" as="geometry">
            <Array as="points">
              <mxPoint x="295" y="139" />
            </Array>
          </mxGeometry>
        </mxCell>
        <mxCell id="1PnqO76EX2JIDrIzQUJ2-6" value="" style="curved=1;startArrow=none;endArrow=block;exitX=0.96;exitY=1;entryX=0.5;entryY=0;rounded=0;" edge="1" parent="1" source="1PnqO76EX2JIDrIzQUJ2-1" target="1PnqO76EX2JIDrIzQUJ2-3">
          <mxGeometry relative="1" as="geometry">
            <Array as="points">
              <mxPoint x="414" y="139" />
            </Array>
          </mxGeometry>
        </mxCell>
        <mxCell id="1PnqO76EX2JIDrIzQUJ2-7" value="" style="curved=1;startArrow=none;endArrow=block;exitX=0.5;exitY=1;entryX=0.06;entryY=0;rounded=0;" edge="1" parent="1" source="1PnqO76EX2JIDrIzQUJ2-2" target="1PnqO76EX2JIDrIzQUJ2-4">
          <mxGeometry relative="1" as="geometry">
            <Array as="points">
              <mxPoint x="295" y="243" />
            </Array>
          </mxGeometry>
        </mxCell>
        <mxCell id="1PnqO76EX2JIDrIzQUJ2-8" value="" style="curved=1;startArrow=none;endArrow=block;exitX=0.5;exitY=1;entryX=0.95;entryY=0;rounded=0;" edge="1" parent="1" source="1PnqO76EX2JIDrIzQUJ2-3" target="1PnqO76EX2JIDrIzQUJ2-4">
          <mxGeometry relative="1" as="geometry">
            <Array as="points">
              <mxPoint x="414" y="243" />
            </Array>
          </mxGeometry>
        </mxCell>
      </root>
    </mxGraphModel>
  </diagram>
</mxfile>
